<svg version="1.1" id="Layer_1" xmlns="http://www.w3.org/2000/svg" xmlns:xlink="http://www.w3.org/1999/xlink" x="0px" y="0px"
	 width="100%" viewBox="0 0 256 256" enable-background="new 0 0 256 256" xml:space="preserve">
<path fill="#3C97D3" opacity="1.000000" stroke="none" 
	d="
M1.000000,235.000000 
	C1.000000,161.645767 1.000000,88.291542 1.250582,14.801876 
	C5.768865,10.452642 10.042069,6.244334 14.276257,1.997128 
	C14.396543,1.876473 14.101423,1.341685 14.000000,1.000000 
	C90.354225,1.000000 166.708450,1.000000 243.198151,1.250620 
	C247.547394,5.768859 251.755646,10.041989 256.002808,14.276096 
	C256.123505,14.396406 256.658295,14.101363 257.000000,13.999999 
	C257.000000,87.354225 257.000000,160.708450 256.531342,234.531921 
	C171.041794,235.000793 86.020897,235.000397 1.000000,235.000000 
M212.499832,18.811544 
	C151.684341,18.812050 90.868858,18.805876 30.053379,18.821032 
	C21.924129,18.823057 18.848761,21.445671 18.837641,28.737608 
	C18.780470,66.226265 18.783041,103.715096 18.841913,141.203751 
	C18.852285,147.808502 22.070475,150.988327 28.750217,150.992645 
	C95.563965,151.035721 162.377762,151.035492 229.191498,150.994217 
	C235.897568,150.990067 239.145004,147.829208 239.155426,141.256485 
	C239.215088,103.601196 239.218643,65.945709 239.147614,28.290464 
	C239.135513,21.876568 236.012115,18.964170 229.494598,18.841330 
	C224.164658,18.740873 218.831436,18.814592 212.499832,18.811544 
M43.201202,168.950073 
	C31.526213,168.732101 23.467894,173.715027 20.025139,183.281174 
	C16.880028,192.020264 19.562336,201.996490 26.591282,207.702454 
	C34.048748,213.756287 43.617279,214.573349 51.752079,209.850906 
	C59.412743,205.403717 63.970428,196.221588 62.633274,187.929184 
	C61.007298,177.845642 54.636108,171.351257 43.201202,168.950073 
M87.020393,211.818558 
	C87.830925,212.003448 88.637924,212.205841 89.452538,212.370590 
	C98.675240,214.235764 108.047272,209.961411 112.790291,201.732742 
	C117.506859,193.549942 116.491165,183.386932 110.236420,176.178696 
	C104.388855,169.439713 94.068321,166.969940 85.604530,170.284149 
	C77.434853,173.483185 72.023361,181.186172 71.825523,189.897842 
	C71.593269,200.125275 76.183113,207.003540 87.020393,211.818558 
M133.525620,174.147491 
	C134.459976,179.078125 137.434067,181.870697 142.444214,181.882584 
	C146.538315,181.892303 149.426300,179.559540 150.602905,175.691727 
	C151.851700,171.586609 150.521667,168.079605 146.878616,165.728180 
	C141.067413,161.977325 134.805634,165.592285 133.525620,174.147491 
M148.803238,214.281601 
	C151.616867,210.726837 151.889801,206.993286 149.278732,203.274429 
	C147.016327,200.052155 143.389282,198.659760 140.097397,200.216125 
	C137.469345,201.458633 134.447357,204.385254 133.986221,206.987228 
	C133.523041,209.600815 135.280975,213.527802 137.374817,215.461456 
	C140.600342,218.440201 144.762085,217.729279 148.803238,214.281601 
M171.599350,177.159378 
	C175.058060,177.312241 178.609299,177.987686 181.936600,177.398483 
	C183.611618,177.101837 184.880096,174.509521 186.332413,172.955307 
	C184.749329,171.605759 183.357910,169.611328 181.534775,169.069473 
	C179.242477,168.388153 176.560303,168.635941 174.116608,168.980728 
	C172.477829,169.211945 169.873383,170.052948 169.633942,171.074265 
	C169.232773,172.785324 170.374298,174.858063 171.599350,177.159378 
M208.697723,177.631119 
	C210.032684,175.841080 211.367630,174.051025 212.702591,172.260986 
	C210.891861,171.135910 209.205231,169.486328 207.238419,169.020935 
	C204.877548,168.462326 202.146957,168.439636 199.824707,169.082123 
	C198.093582,169.561096 196.756790,171.465317 195.244400,172.734818 
	C196.626999,174.366592 197.729218,176.868271 199.458176,177.425537 
	C202.029144,178.254257 205.043182,177.708405 208.697723,177.631119 
M207.883835,186.216782 
	C205.058578,186.253067 202.045975,185.705048 199.473572,186.529922 
	C197.742294,187.085052 196.633286,189.580811 195.245895,191.208420 
	C196.752319,192.485580 198.080719,194.401398 199.808899,194.883163 
	C202.128113,195.529678 204.859268,195.503754 207.220078,194.946625 
	C209.190140,194.481720 210.881683,192.836700 212.696579,191.714325 
	C211.368210,189.919540 210.039841,188.124741 207.883835,186.216782 
M211.124756,205.023590 
	C207.364944,204.695496 203.556274,203.884842 199.867538,204.258484 
	C198.212967,204.426071 196.798538,206.964569 195.275146,208.427200 
	C196.799713,209.910110 198.095718,212.138672 199.904861,212.693268 
	C202.342880,213.440643 205.195480,213.107681 207.835388,212.863007 
	C212.209518,212.457596 213.391678,210.068146 211.124756,205.023590 
M233.096893,177.794434 
	C236.323914,177.591064 239.212143,176.802063 238.997925,172.768555 
	C238.785889,168.776154 235.679916,168.883850 232.801132,168.881256 
	C230.656509,168.879318 228.357758,168.427231 226.413864,169.057877 
	C224.725800,169.605515 222.129898,171.563904 222.265594,172.590988 
	C222.500992,174.373047 224.221176,176.551880 225.903137,177.386368 
	C227.652603,178.254318 230.094223,177.727173 233.096893,177.794434 
M238.098129,193.711868 
	C239.933151,190.495132 239.460846,187.501709 235.772812,186.720016 
	C232.331848,185.990707 228.536835,186.221924 225.041321,186.841202 
	C223.801300,187.060913 222.127655,189.725235 222.223419,191.169342 
	C222.313019,192.520737 224.409943,194.722534 225.750717,194.821228 
	C229.621704,195.106186 233.556870,194.519409 238.098129,193.711868 
M173.073471,195.012680 
	C175.902740,195.027878 178.860992,195.551453 181.515488,194.877869 
	C183.257874,194.435730 185.818085,192.191315 185.742340,190.885681 
	C185.648376,189.265747 183.469879,187.040451 181.718216,186.425461 
	C179.492447,185.643997 176.699310,185.804047 174.325089,186.336014 
	C172.468491,186.752014 169.691040,188.156677 169.472488,189.477692 
	C169.207077,191.082031 171.199524,193.059891 173.073471,195.012680 
M171.455490,204.509247 
	C170.713928,206.337708 168.971802,208.565506 169.499390,209.887421 
	C170.079742,211.341507 172.647964,212.342010 174.534760,212.838745 
	C176.401367,213.330170 178.498413,212.955887 180.494278,212.944611 
	C183.467972,212.927795 185.949402,212.022858 185.995697,208.583694 
	C186.046310,204.823685 183.387100,203.959702 180.226288,204.009186 
	C177.569000,204.050797 174.912521,204.144745 171.455490,204.509247 
M237.248703,212.004044 
	C240.335861,207.325226 239.050278,204.339920 233.725906,204.040665 
	C231.239456,203.900909 228.536407,203.471329 226.306091,204.248291 
	C224.565277,204.854706 222.532761,206.992767 222.281830,208.693893 
	C222.107712,209.874420 224.593979,212.446457 226.147339,212.677505 
	C229.520630,213.179199 233.057709,212.579742 237.248703,212.004044 
z"/>
<path fill="#84B5CB" opacity="1.000000" stroke="none" 
	d="
M1.000000,235.449982 
	C86.020897,235.000397 171.041794,235.000793 256.531342,235.000580 
	C257.000000,237.700012 257.000000,240.400024 256.751343,243.213928 
	C252.231293,247.543503 247.954376,251.753723 243.716599,256.002960 
	C243.597549,256.122345 243.896149,256.658295 244.000000,257.000000 
	C167.645767,257.000000 91.291542,257.000000 14.804831,256.751404 
	C10.456604,252.231369 6.246325,247.954407 1.997053,243.716568 
	C1.877657,243.597519 1.341709,243.896149 1.000001,244.000000 
	C1.000000,241.299988 1.000000,238.599976 1.000000,235.449982 
z"/>
<path fill="#000000" opacity="1.000000" stroke="none" 
	d="
M1.000001,244.476669 
	C1.341709,243.896149 1.877657,243.597519 1.997053,243.716568 
	C6.246325,247.954407 10.456604,252.231369 14.336173,256.751404 
	C9.743702,257.000000 5.487404,257.000000 1.000000,257.000000 
	C1.000000,252.986252 1.000000,248.969788 1.000001,244.476669 
z"/>
<path fill="#000000" opacity="1.000000" stroke="none" 
	d="
M244.476654,257.000000 
	C243.896149,256.658295 243.597549,256.122345 243.716599,256.002960 
	C247.954376,251.753723 252.231293,247.543503 256.751343,243.663910 
	C257.000000,248.256302 257.000000,252.512589 257.000000,257.000000 
	C252.986252,257.000000 248.969788,257.000000 244.476654,257.000000 
z"/>
<path fill="#000000" opacity="1.000000" stroke="none" 
	d="
M257.000000,13.523337 
	C256.658295,14.101363 256.123505,14.396406 256.002808,14.276096 
	C251.755646,10.041989 247.547394,5.768859 243.666809,1.250620 
	C248.256302,1.000000 252.512589,1.000000 257.000000,1.000000 
	C257.000000,5.013751 257.000000,9.030214 257.000000,13.523337 
z"/>
<path fill="#000000" opacity="1.000000" stroke="none" 
	d="
M13.523338,1.000000 
	C14.101423,1.341685 14.396543,1.876473 14.276257,1.997128 
	C10.042069,6.244334 5.768865,10.452642 1.250582,14.333218 
	C1.000000,9.743702 1.000000,5.487404 1.000000,1.000000 
	C5.013751,1.000000 9.030214,1.000000 13.523338,1.000000 
z"/>
<path fill="#BCC2C6" opacity="1.000000" stroke="none" 
	d="
M212.999756,18.811317 
	C218.831436,18.814592 224.164658,18.740873 229.494598,18.841330 
	C236.012115,18.964170 239.135513,21.876568 239.147614,28.290464 
	C239.218643,65.945709 239.215088,103.601196 239.155426,141.256485 
	C239.145004,147.829208 235.897568,150.990067 229.191498,150.994217 
	C162.377762,151.035492 95.563965,151.035721 28.750217,150.992645 
	C22.070475,150.988327 18.852285,147.808502 18.841913,141.203751 
	C18.783041,103.715096 18.780470,66.226265 18.837641,28.737608 
	C18.848761,21.445671 21.924129,18.823057 30.053379,18.821032 
	C90.868858,18.805876 151.684341,18.812050 212.999756,18.811317 
M27.416069,98.811966 
	C27.523237,101.641983 27.630405,104.471992 27.667213,108.193771 
	C27.667213,119.395866 27.667213,130.597961 27.667213,141.822235 
	C95.629539,141.822235 162.780289,141.822235 230.388077,141.822235 
	C230.388077,130.049347 230.388077,118.608910 230.622971,106.265549 
	C230.546631,103.463890 230.470291,100.662231 230.507431,96.950226 
	C230.516556,75.472618 230.492279,53.994896 230.570068,32.517540 
	C230.582016,29.217487 230.041641,27.248459 225.968658,27.325050 
	C208.993713,27.644258 192.013718,27.694466 174.279373,27.532856 
	C172.285858,27.454172 170.292374,27.307714 168.298828,27.306894 
	C134.150299,27.292849 100.001762,27.296398 65.853226,27.297028 
	C54.525913,27.297237 43.198521,27.322744 31.871342,27.284645 
	C29.283390,27.275942 27.285036,27.557980 27.307058,30.945122 
	C27.452150,53.259895 27.512787,75.575218 27.416069,98.811966 
z"/>
<path fill="#BBC3C8" opacity="1.000000" stroke="none" 
	d="
M43.638321,168.981293 
	C54.636108,171.351257 61.007298,177.845642 62.633274,187.929184 
	C63.970428,196.221588 59.412743,205.403717 51.752079,209.850906 
	C43.617279,214.573349 34.048748,213.756287 26.591282,207.702454 
	C19.562336,201.996490 16.880028,192.020264 20.025139,183.281174 
	C23.467894,173.715027 31.526213,168.732101 43.638321,168.981293 
M53.063503,195.251755 
	C55.103119,187.554626 51.592220,180.187744 44.983059,178.296646 
	C37.758865,176.229584 30.472437,179.784622 28.385983,186.394363 
	C26.080294,193.698624 29.534849,200.733765 36.686661,203.298599 
	C42.719551,205.462128 48.839348,202.682327 53.063503,195.251755 
z"/>
<path fill="#BBC3C8" opacity="1.000000" stroke="none" 
	d="
M86.646667,211.683517 
	C76.183113,207.003540 71.593269,200.125275 71.825523,189.897842 
	C72.023361,181.186172 77.434853,173.483185 85.604530,170.284149 
	C94.068321,166.969940 104.388855,169.439713 110.236420,176.178696 
	C116.491165,183.386932 117.506859,193.549942 112.790291,201.732742 
	C108.047272,209.961411 98.675240,214.235764 89.452538,212.370590 
	C88.637924,212.205841 87.830925,212.003448 86.646667,211.683517 
M91.924248,203.901108 
	C99.484680,203.899719 104.168564,200.898254 106.235123,194.730591 
	C107.911362,189.727844 106.128960,183.923935 101.834984,180.402863 
	C97.882767,177.161972 91.060226,176.884323 86.375488,179.845459 
	C81.542610,182.900238 80.421906,187.600296 80.948540,192.862946 
	C81.564705,199.020264 85.712692,202.019302 91.924248,203.901108 
z"/>
<path fill="#E6EDF0" opacity="1.000000" stroke="none" 
	d="
M133.479340,173.774597 
	C134.805634,165.592285 141.067413,161.977325 146.878616,165.728180 
	C150.521667,168.079605 151.851700,171.586609 150.602905,175.691727 
	C149.426300,179.559540 146.538315,181.892303 142.444214,181.882584 
	C137.434067,181.870697 134.459976,179.078125 133.479340,173.774597 
z"/>
<path fill="#E7EEF0" opacity="1.000000" stroke="none" 
	d="
M148.528549,214.560638 
	C144.762085,217.729279 140.600342,218.440201 137.374817,215.461456 
	C135.280975,213.527802 133.523041,209.600815 133.986221,206.987228 
	C134.447357,204.385254 137.469345,201.458633 140.097397,200.216125 
	C143.389282,198.659760 147.016327,200.052155 149.278732,203.274429 
	C151.889801,206.993286 151.616867,210.726837 148.528549,214.560638 
z"/>
<path fill="#295984" opacity="1.000000" stroke="none" 
	d="
M171.232971,176.968994 
	C170.374298,174.858063 169.232773,172.785324 169.633942,171.074265 
	C169.873383,170.052948 172.477829,169.211945 174.116608,168.980728 
	C176.560303,168.635941 179.242477,168.388153 181.534775,169.069473 
	C183.357910,169.611328 184.749329,171.605759 186.332413,172.955307 
	C184.880096,174.509521 183.611618,177.101837 181.936600,177.398483 
	C178.609299,177.987686 175.058060,177.312241 171.232971,176.968994 
z"/>
<path fill="#295A85" opacity="1.000000" stroke="none" 
	d="
M208.283188,177.689331 
	C205.043182,177.708405 202.029144,178.254257 199.458176,177.425537 
	C197.729218,176.868271 196.626999,174.366592 195.244385,172.734802 
	C196.756790,171.465317 198.093582,169.561096 199.824707,169.082123 
	C202.146957,168.439636 204.877548,168.462326 207.238419,169.020935 
	C209.205231,169.486328 210.891861,171.135910 212.702591,172.260986 
	C211.367630,174.051025 210.032684,175.841080 208.283188,177.689331 
z"/>
<path fill="#295984" opacity="1.000000" stroke="none" 
	d="
M208.297653,186.273376 
	C210.039841,188.124741 211.368210,189.919540 212.696564,191.714325 
	C210.881683,192.836700 209.190140,194.481720 207.220078,194.946625 
	C204.859268,195.503754 202.128113,195.529678 199.808899,194.883163 
	C198.080719,194.401398 196.752319,192.485580 195.245895,191.208405 
	C196.633286,189.580811 197.742294,187.085052 199.473572,186.529922 
	C202.045975,185.705048 205.058578,186.253067 208.297653,186.273376 
z"/>
<path fill="#295983" opacity="1.000000" stroke="none" 
	d="
M211.421341,205.290680 
	C213.391678,210.068146 212.209518,212.457596 207.835388,212.863007 
	C205.195480,213.107681 202.342880,213.440643 199.904861,212.693268 
	C198.095718,212.138672 196.799713,209.910110 195.275146,208.427200 
	C196.798538,206.964569 198.212967,204.426071 199.867538,204.258484 
	C203.556274,203.884842 207.364944,204.695496 211.421341,205.290680 
z"/>
<path fill="#295984" opacity="1.000000" stroke="none" 
	d="
M232.665039,177.802246 
	C230.094223,177.727173 227.652603,178.254318 225.903137,177.386368 
	C224.221176,176.551880 222.500992,174.373047 222.265594,172.590988 
	C222.129898,171.563904 224.725800,169.605515 226.413864,169.057877 
	C228.357758,168.427231 230.656509,168.879318 232.801132,168.881256 
	C235.679916,168.883850 238.785889,168.776154 238.997925,172.768555 
	C239.212143,176.802063 236.323914,177.591064 232.665039,177.802246 
z"/>
<path fill="#295984" opacity="1.000000" stroke="none" 
	d="
M237.782471,193.993408 
	C233.556870,194.519409 229.621704,195.106186 225.750717,194.821228 
	C224.409943,194.722534 222.313019,192.520737 222.223419,191.169342 
	C222.127655,189.725235 223.801300,187.060913 225.041321,186.841202 
	C228.536835,186.221924 232.331848,185.990707 235.772812,186.720016 
	C239.460846,187.501709 239.933151,190.495132 237.782471,193.993408 
z"/>
<path fill="#295984" opacity="1.000000" stroke="none" 
	d="
M172.644318,194.944427 
	C171.199524,193.059891 169.207077,191.082031 169.472488,189.477692 
	C169.691040,188.156677 172.468491,186.752014 174.325089,186.336014 
	C176.699310,185.804047 179.492447,185.643997 181.718216,186.425461 
	C183.469879,187.040451 185.648376,189.265747 185.742340,190.885681 
	C185.818085,192.191315 183.257874,194.435730 181.515488,194.877869 
	C178.860992,195.551453 175.902740,195.027878 172.644318,194.944427 
z"/>
<path fill="#295883" opacity="1.000000" stroke="none" 
	d="
M171.855591,204.362381 
	C174.912521,204.144745 177.569000,204.050797 180.226288,204.009186 
	C183.387100,203.959702 186.046310,204.823685 185.995697,208.583694 
	C185.949402,212.022858 183.467972,212.927795 180.494278,212.944611 
	C178.498413,212.955887 176.401367,213.330170 174.534760,212.838745 
	C172.647964,212.342010 170.079742,211.341507 169.499390,209.887421 
	C168.971802,208.565506 170.713928,206.337708 171.855591,204.362381 
z"/>
<path fill="#295883" opacity="1.000000" stroke="none" 
	d="
M236.888260,212.217255 
	C233.057709,212.579742 229.520630,213.179199 226.147339,212.677505 
	C224.593979,212.446457 222.107712,209.874420 222.281830,208.693893 
	C222.532761,206.992767 224.565277,204.854706 226.306091,204.248291 
	C228.536407,203.471329 231.239456,203.900909 233.725906,204.040665 
	C239.050278,204.339920 240.335861,207.325226 236.888260,212.217255 
z"/>
<path fill="#3F5D6C" opacity="1.000000" stroke="none" 
	d="
M230.388077,107.168465 
	C230.388077,118.608910 230.388077,130.049347 230.388077,141.822235 
	C162.780289,141.822235 95.629539,141.822235 27.667213,141.822235 
	C27.667213,130.597961 27.667213,119.395866 28.094189,107.701729 
	C30.495808,107.135635 32.470005,107.045654 34.445175,106.990379 
	C41.885391,106.782173 44.955189,103.733604 45.088337,96.452965 
	C45.157509,92.670441 45.281334,88.888924 45.680641,84.995239 
	C50.006004,80.628464 54.031197,76.373405 58.477993,72.051880 
	C62.116562,71.336189 62.942734,72.931450 62.897350,75.858147 
	C62.786369,83.014900 62.782276,90.176216 62.904518,97.332802 
	C63.010609,103.543678 66.308495,106.778938 72.551971,106.959343 
	C76.211479,107.065086 79.877922,107.048607 83.538658,106.968544 
	C90.254524,106.821671 93.580353,103.544960 93.799812,96.759399 
	C93.934288,92.601646 93.836960,88.436272 93.837532,84.274323 
	C93.839340,71.177170 93.834953,71.276909 106.921570,71.704735 
	C110.173126,71.811043 111.299164,72.918518 111.230766,76.117470 
	C111.081367,83.106133 111.052292,90.104790 111.253227,97.091339 
	C111.439774,103.577072 114.856110,106.809235 121.324806,106.962654 
	C125.317741,107.057343 129.322739,107.119919 133.308563,106.921028 
	C138.695923,106.652199 141.892715,103.404663 142.099503,98.013649 
	C142.271667,93.525017 142.161026,89.025246 142.162338,84.530403 
	C142.166306,70.983650 142.159744,71.070518 155.980576,71.709831 
	C159.031357,71.850967 160.026810,72.922287 159.967331,75.883568 
	C159.826965,82.872765 159.868561,89.867569 159.951736,96.858734 
	C160.029785,103.420586 163.245239,106.754654 169.668396,106.955391 
	C173.493637,107.074936 177.329071,107.080551 181.153870,106.954094 
	C187.275574,106.751694 190.653488,103.392303 190.864319,97.242241 
	C191.012527,92.918724 190.905624,88.586334 190.906250,84.257912 
	C190.908142,71.166885 190.903656,71.263824 203.978561,71.706566 
	C207.210587,71.816017 208.386444,72.911232 208.323105,76.115623 
	C208.184952,83.104698 208.146210,90.103371 208.355423,97.089478 
	C208.550858,103.615074 211.921951,106.779610 218.409897,106.971138 
	C222.401093,107.088951 226.395248,107.106110 230.388077,107.168465 
z"/>
<path fill="#3F5D6C" opacity="1.000000" stroke="none" 
	d="
M175.035568,27.843327 
	C192.013718,27.694466 208.993713,27.644258 225.968658,27.325050 
	C230.041641,27.248459 230.582016,29.217487 230.570068,32.517540 
	C230.492279,53.994896 230.516556,75.472618 230.042175,97.455444 
	C226.913559,97.989494 224.233383,97.840408 221.590958,98.090363 
	C217.948822,98.434860 216.973755,96.773735 217.136475,93.425392 
	C217.346359,89.106438 217.185532,84.769501 217.185440,80.440308 
	C217.185089,63.176975 216.878510,62.871346 199.553665,62.871380 
	C182.374252,62.871414 181.975800,63.271603 181.975769,80.526848 
	C181.975754,86.265114 181.975769,92.003372 181.975769,98.048759 
	C178.686646,98.048759 176.341034,97.826660 174.053528,98.096733 
	C169.787811,98.600372 168.606934,96.773949 168.781265,92.712570 
	C169.066620,86.064751 168.971024,79.392479 168.810974,72.735931 
	C168.653824,66.199539 165.331619,63.007778 158.812424,62.896439 
	C153.818634,62.811153 148.821762,62.829990 143.827179,62.885895 
	C136.635910,62.966389 133.481842,66.003845 133.292465,73.225250 
	C133.148453,78.716316 133.311340,84.214699 133.239883,89.708549 
	C133.120560,98.883667 134.642349,97.852646 124.535339,98.111847 
	C120.956207,98.203629 119.958450,96.862221 120.050690,93.468140 
	C120.245125,86.313850 120.212875,79.147644 120.052483,71.991280 
	C119.923019,66.215439 116.755348,63.077049 111.001328,62.920792 
	C105.510612,62.771683 100.011139,62.799351 94.518501,62.905022 
	C88.157455,63.027397 85.069672,66.118309 84.946022,72.490105 
	C84.836205,78.149277 84.914925,83.812149 84.913597,89.473389 
	C84.911430,98.664917 84.917770,98.555168 75.500145,98.105515 
	C72.665504,97.970161 71.697144,96.929146 71.760109,94.214409 
	C71.872025,89.388374 72.033630,84.541100 71.710838,79.733849 
	C71.404160,75.166588 70.504128,70.639168 70.049004,65.797714 
	C72.476082,63.827450 74.591431,61.939579 76.982185,60.513409 
	C98.589661,47.623833 122.159599,39.837048 146.487122,34.106579 
	C155.968948,31.873095 165.517441,29.922676 175.035568,27.843327 
z"/>
<path fill="#65D7B6" opacity="1.000000" stroke="none" 
	d="
M69.864998,66.094231 
	C70.504128,70.639168 71.404160,75.166588 71.710838,79.733849 
	C72.033630,84.541100 71.872025,89.388374 71.760109,94.214409 
	C71.697144,96.929146 72.665504,97.970161 75.500145,98.105515 
	C84.917770,98.555168 84.911430,98.664917 84.913597,89.473389 
	C84.914925,83.812149 84.836205,78.149277 84.946022,72.490105 
	C85.069672,66.118309 88.157455,63.027397 94.518501,62.905022 
	C100.011139,62.799351 105.510612,62.771683 111.001328,62.920792 
	C116.755348,63.077049 119.923019,66.215439 120.052483,71.991280 
	C120.212875,79.147644 120.245125,86.313850 120.050690,93.468140 
	C119.958450,96.862221 120.956207,98.203629 124.535339,98.111847 
	C134.642349,97.852646 133.120560,98.883667 133.239883,89.708549 
	C133.311340,84.214699 133.148453,78.716316 133.292465,73.225250 
	C133.481842,66.003845 136.635910,62.966389 143.827179,62.885895 
	C148.821762,62.829990 153.818634,62.811153 158.812424,62.896439 
	C165.331619,63.007778 168.653824,66.199539 168.810974,72.735931 
	C168.971024,79.392479 169.066620,86.064751 168.781265,92.712570 
	C168.606934,96.773949 169.787811,98.600372 174.053528,98.096733 
	C176.341034,97.826660 178.686646,98.048759 181.975769,98.048759 
	C181.975769,92.003372 181.975754,86.265114 181.975769,80.526848 
	C181.975800,63.271603 182.374252,62.871414 199.553665,62.871380 
	C216.878510,62.871346 217.185089,63.176975 217.185440,80.440308 
	C217.185532,84.769501 217.346359,89.106438 217.136475,93.425392 
	C216.973755,96.773735 217.948822,98.434860 221.590958,98.090363 
	C224.233383,97.840408 226.913559,97.989494 229.985428,97.910614 
	C230.470291,100.662231 230.546631,103.463890 230.505524,106.717010 
	C226.395248,107.106110 222.401093,107.088951 218.409897,106.971138 
	C211.921951,106.779610 208.550858,103.615074 208.355423,97.089478 
	C208.146210,90.103371 208.184952,83.104698 208.323105,76.115623 
	C208.386444,72.911232 207.210587,71.816017 203.978561,71.706566 
	C190.903656,71.263824 190.908142,71.166885 190.906250,84.257912 
	C190.905624,88.586334 191.012527,92.918724 190.864319,97.242241 
	C190.653488,103.392303 187.275574,106.751694 181.153870,106.954094 
	C177.329071,107.080551 173.493637,107.074936 169.668396,106.955391 
	C163.245239,106.754654 160.029785,103.420586 159.951736,96.858734 
	C159.868561,89.867569 159.826965,82.872765 159.967331,75.883568 
	C160.026810,72.922287 159.031357,71.850967 155.980576,71.709831 
	C142.159744,71.070518 142.166306,70.983650 142.162338,84.530403 
	C142.161026,89.025246 142.271667,93.525017 142.099503,98.013649 
	C141.892715,103.404663 138.695923,106.652199 133.308563,106.921028 
	C129.322739,107.119919 125.317741,107.057343 121.324806,106.962654 
	C114.856110,106.809235 111.439774,103.577072 111.253227,97.091339 
	C111.052292,90.104790 111.081367,83.106133 111.230766,76.117470 
	C111.299164,72.918518 110.173126,71.811043 106.921570,71.704735 
	C93.834953,71.276909 93.839340,71.177170 93.837532,84.274323 
	C93.836960,88.436272 93.934288,92.601646 93.799812,96.759399 
	C93.580353,103.544960 90.254524,106.821671 83.538658,106.968544 
	C79.877922,107.048607 76.211479,107.065086 72.551971,106.959343 
	C66.308495,106.778938 63.010609,103.543678 62.904518,97.332802 
	C62.782276,90.176216 62.786369,83.014900 62.897350,75.858147 
	C62.942734,72.931450 62.116562,71.336189 58.014862,71.962547 
	C43.263699,71.977234 45.074986,69.490547 45.202908,84.137566 
	C45.205734,84.461182 45.318821,84.783844 45.380474,85.106949 
	C45.281334,88.888924 45.157509,92.670441 45.088337,96.452965 
	C44.955189,103.733604 41.885391,106.782173 34.445175,106.990379 
	C32.470005,107.045654 30.495808,107.135635 28.129368,107.255844 
	C27.630405,104.471992 27.523237,101.641983 27.906963,98.388351 
	C36.120937,98.136978 36.121876,98.136978 36.127335,90.642624 
	C36.131580,84.812531 36.045097,78.980713 36.158745,73.152786 
	C36.292389,66.298889 39.576782,63.022953 46.299908,62.925209 
	C51.296089,62.852566 56.332005,62.540157 61.277081,63.047478 
	C64.213013,63.348679 67.007118,65.032219 69.864998,66.094231 
z"/>
<path fill="#587882" opacity="1.000000" stroke="none" 
	d="
M70.049004,65.797714 
	C67.007118,65.032219 64.213013,63.348679 61.277081,63.047478 
	C56.332005,62.540157 51.296089,62.852566 46.299908,62.925209 
	C39.576782,63.022953 36.292389,66.298889 36.158745,73.152786 
	C36.045097,78.980713 36.131580,84.812531 36.127335,90.642624 
	C36.121876,98.136978 36.120937,98.136978 27.999409,97.927551 
	C27.512787,75.575218 27.452150,53.259895 27.307058,30.945122 
	C27.285036,27.557980 29.283390,27.275942 31.871342,27.284645 
	C43.198521,27.322744 54.525913,27.297237 65.853226,27.297028 
	C100.001762,27.296398 134.150299,27.292849 168.298828,27.306894 
	C170.292374,27.307714 172.285858,27.454172 174.657471,27.688091 
	C165.517441,29.922676 155.968948,31.873095 146.487122,34.106579 
	C122.159599,39.837048 98.589661,47.623833 76.982185,60.513409 
	C74.591431,61.939579 72.476082,63.827450 70.049004,65.797714 
z"/>
<path fill="#EBEFF0" opacity="1.000000" stroke="none" 
	d="
M52.930313,195.616211 
	C48.839348,202.682327 42.719551,205.462128 36.686661,203.298599 
	C29.534849,200.733765 26.080294,193.698624 28.385983,186.394363 
	C30.472437,179.784622 37.758865,176.229584 44.983059,178.296646 
	C51.592220,180.187744 55.103119,187.554626 52.930313,195.616211 
z"/>
<path fill="#EBEFF0" opacity="1.000000" stroke="none" 
	d="
M91.527130,203.833420 
	C85.712692,202.019302 81.564705,199.020264 80.948540,192.862946 
	C80.421906,187.600296 81.542610,182.900238 86.375488,179.845459 
	C91.060226,176.884323 97.882767,177.161972 101.834984,180.402863 
	C106.128960,183.923935 107.911362,189.727844 106.235123,194.730591 
	C104.168564,200.898254 99.484680,203.899719 91.527130,203.833420 
z"/>
<path fill="#537680" opacity="1.000000" stroke="none" 
	d="
M45.680641,84.995239 
	C45.318821,84.783844 45.205734,84.461182 45.202908,84.137566 
	C45.074986,69.490547 43.263699,71.977234 57.593258,72.029007 
	C54.031197,76.373405 50.006004,80.628464 45.680641,84.995239 
z"/>
</svg>